<svg xmlns="http://www.w3.org/2000/svg" viewBox="0 0 960 600">
  <rect width="960" height="600" fill="#1e3a5f"/>
  <!-- Continental US outline -->
  <path d="
    M 175,100 L 178,90 L 185,85 L 175,60 L 170,55 L 172,50 L 200,48 L 210,52
    L 230,50 L 248,48 L 260,50 L 280,48 L 320,52 L 340,50 L 360,48
    L 380,50 L 400,48 L 420,50 L 440,48 L 460,50 L 480,52
    L 500,54 L 510,56 L 520,60 L 530,65 L 540,72 L 548,80
    L 555,88 L 558,95 L 565,100 L 575,98 L 580,93 L 590,90
    L 600,92 L 610,88 L 615,85 L 608,80 L 600,78 L 595,72
    L 600,68 L 610,65 L 620,62 L 630,58 L 640,55
    L 650,52 L 660,50 L 665,48 L 675,46 L 690,42
    L 695,38 L 700,35 L 710,32 L 720,28 L 730,25
    L 740,22 L 752,20 L 760,22 L 768,28 L 772,35
    L 778,40 L 780,48 L 775,55 L 770,58
    L 782,60 L 790,58 L 798,55 L 805,52 L 812,55
    L 818,60 L 822,68 L 828,72 L 835,68
    L 838,75 L 830,82 L 825,90
    L 830,95 L 838,100 L 842,108
    L 838,115 L 832,120 L 828,128
    L 822,135 L 818,142 L 815,150
    L 810,158 L 805,165 L 800,170
    L 795,178 L 790,185 L 785,190
    L 782,198 L 778,205 L 775,210
    L 770,218 L 765,225 L 760,232
    L 758,238 L 762,245 L 770,248
    L 778,252 L 772,258 L 765,262
    L 758,268 L 752,275 L 748,280
    L 742,285 L 738,290 L 730,295
    L 728,302 L 735,308 L 740,312
    L 738,318 L 730,322 L 725,328
    L 720,335 L 718,342 L 722,348
    L 730,352 L 728,358 L 720,362
    L 712,368 L 710,375 L 715,380
    L 722,385 L 718,392 L 710,395
    L 705,402 L 700,408 L 695,412
    L 688,418 L 682,422 L 678,428
    L 672,432 L 665,435 L 660,440
    L 655,448 L 648,455 L 640,458
    L 635,462 L 628,465 L 620,468
    L 612,472 L 608,480 L 615,488
    L 622,495 L 628,502 L 625,510
    L 618,515 L 610,520 L 605,528
    L 600,535 L 592,540 L 585,535
    L 578,528 L 572,520 L 568,512
    L 560,508 L 552,505 L 548,498
    L 542,490 L 535,485 L 530,480
    L 522,478 L 515,475 L 508,470
    L 500,468 L 492,465 L 485,462
    L 478,458 L 470,455 L 462,452
    L 455,448 L 448,445 L 440,442
    L 432,440 L 425,438 L 418,440
    L 410,442 L 405,448 L 400,455
    L 392,460 L 385,462 L 378,458
    L 372,452 L 365,448 L 358,445
    L 350,442 L 342,440 L 335,438
    L 328,436 L 320,434 L 312,432
    L 305,430 L 298,428 L 290,426
    L 282,424 L 275,422 L 270,418
    L 265,412 L 258,408 L 250,405
    L 242,400 L 235,395 L 228,390
    L 220,385 L 212,380 L 205,375
    L 198,372 L 192,370 L 185,365
    L 178,360 L 172,355 L 168,348
    L 162,340 L 158,332 L 155,325
    L 150,318 L 148,310 L 145,302
    L 142,295 L 140,288 L 138,280
    L 135,272 L 132,265 L 130,258
    L 128,250 L 126,242 L 125,235
    L 122,225 L 120,215 L 118,205
    L 115,195 L 118,188 L 125,180
    L 130,172 L 138,168 L 145,162
    L 152,155 L 158,148 L 165,140
    L 170,132 L 172,125 L 168,118
    L 162,112 L 168,108 L 175,100
    Z
  " fill="#8B7355" stroke="#6B5B45" stroke-width="1.5"/>
  <!-- Alaska -->
  <path d="
    M 80,420 L 95,410 L 115,408 L 135,412 L 155,418
    L 170,425 L 178,435 L 172,445 L 158,452
    L 140,455 L 120,452 L 100,448 L 85,440 L 80,430 Z
  " fill="#8B7355" stroke="#6B5B45" stroke-width="1"/>
  <!-- Hawaii -->
  <path d="
    M 250,510 L 262,505 L 275,508 L 282,515 L 278,522
    L 268,525 L 255,522 L 248,516 Z
  " fill="#8B7355" stroke="#6B5B45" stroke-width="1"/>
  <!-- Great Lakes (water cutouts) -->
  <ellipse cx="600" cy="82" rx="25" ry="12" fill="#1e3a5f" opacity="0.7"/>
  <ellipse cx="570" cy="95" rx="18" ry="10" fill="#1e3a5f" opacity="0.7"/>
  <ellipse cx="545" cy="85" rx="15" ry="8" fill="#1e3a5f" opacity="0.7"/>
  <ellipse cx="628" cy="72" rx="12" ry="8" fill="#1e3a5f" opacity="0.7"/>
  <ellipse cx="650" cy="60" rx="10" ry="6" fill="#1e3a5f" opacity="0.7"/>
</svg>
